<svg id="Layer_1" data-name="Layer 1" xmlns="http://www.w3.org/2000/svg" xmlns:xlink="http://www.w3.org/1999/xlink" viewBox="0 0 50 50"><defs><style>.cls-1{fill:url(#linear-gradient);}.cls-2{fill:#fff;}.cls-3{fill:none;}</style><linearGradient id="linear-gradient" x1="-37.31" y1="-172.9" x2="41.49" y2="-172.9" gradientTransform="translate(-98.03 146.67) rotate(45)" gradientUnits="userSpaceOnUse"><stop offset="0" stop-color="#fa6a63"/><stop offset="1" stop-color="#f4b22d"/></linearGradient></defs><circle class="cls-1" cx="24.83" cy="25" r="25"/><circle class="cls-2" cx="24.83" cy="25" r="3.89"/><path class="cls-3" d="M33.19,26.32C36.68,23.05,38.07,19.74,37,18c-.69-1.2-2.52-1.79-5-1.64A29.7,29.7,0,0,1,33.23,25C33.23,25.45,33.21,25.88,33.19,26.32Z"/><path class="cls-3" d="M16.46,23.68C13,27,11.58,30.26,12.62,32.05c.7,1.21,2.52,1.79,5,1.64A30.11,30.11,0,0,1,16.43,25C16.43,24.55,16.44,24.12,16.46,23.68Z"/><path class="cls-2" d="M31.22,16.38a15.73,15.73,0,0,0-1.56.25A27.28,27.28,0,0,1,30.87,25a32.86,32.86,0,0,1-.18,3.38c.6-.43,1.16-.88,1.68-1.32,0-.68.07-1.36.07-2.06A29.2,29.2,0,0,0,31.22,16.38Z"/><path class="cls-2" d="M19,14.88c-.2.48-.38,1-.55,1.51a19.91,19.91,0,0,1,3.35.71c.67-.35,1.34-.67,2-1A23.43,23.43,0,0,0,19,14.88Z"/><path class="cls-2" d="M27.85,19.76A28.38,28.38,0,0,1,34,24.42c.37-.42.69-.82,1-1.22a29.5,29.5,0,0,0-6.3-4.79c-.27-.16-.55-.31-.83-.46-.67.21-1.34.45-2,.72C26.47,19,27.16,19.37,27.85,19.76Z"/><path class="cls-2" d="M35.94,26.87c1.39,2.1,1.79,4,1.1,5.18S34.12,34,31.21,33.62q-.26.78-.54,1.5a15.67,15.67,0,0,0,2.1.16c2.64,0,4.68-.8,5.63-2.45,1.1-1.9.48-4.5-1.4-7.18C36.67,26.06,36.32,26.46,35.94,26.87Z"/><path class="cls-2" d="M12.62,18c.62-1.08,2.14-1.67,4.24-1.67.24,0,.5,0,.76,0,.17-.54.35-1.05.54-1.55-3.38-.31-5.83.54-6.9,2.4s-.49,4.5,1.4,7.18c.32-.41.67-.81,1.05-1.22C12.33,21,11.92,19.15,12.62,18Z"/><path class="cls-2" d="M31.28,29.86c0,.27-.08.53-.13.79l-.06.32-.27.19-.66.42c-.09.35-.18.7-.27,1a15.36,15.36,0,0,0,1.54.25,25.32,25.32,0,0,0,.73-3.63C31.88,29.45,31.58,29.65,31.28,29.86Z"/><path class="cls-2" d="M20.08,35.76l-.78.11c1.38,3,3.33,4.8,5.53,4.8s4.14-1.83,5.52-4.8c-.52-.08-1-.18-1.58-.3-1.12,2.25-2.55,3.53-3.94,3.53S22,37.81,20.9,35.57l-.17,0-.64.14"/><path class="cls-2" d="M28.77,35.57c.54.12,1.06.22,1.58.3.11-.24.22-.5.32-.75-.51-.07-1-.16-1.56-.28C29,35.09,28.89,35.33,28.77,35.57Z"/><path class="cls-2" d="M29.66,33.37c-.17.52-.36,1-.55,1.47.53.12,1.05.21,1.56.28q.28-.72.54-1.5C30.71,33.56,30.2,33.48,29.66,33.37Z"/><path class="cls-2" d="M24.83,16.53c-.35-.14-.69-.28-1-.4-.67.3-1.34.62-2,1l1,.34C23.49,17.11,24.16,16.8,24.83,16.53Z"/><path class="cls-2" d="M24.82,18.23l1,.44c.68-.27,1.35-.51,2-.72-.33-.18-.65-.35-1-.51C26.17,17.67,25.5,17.93,24.82,18.23Z"/><path class="cls-2" d="M22.82,17.44c-.32.16-.64.34-.95.51.65.21,1.32.45,2,.73q.48-.24,1-.45C24.15,17.94,23.48,17.67,22.82,17.44Z"/><path class="cls-2" d="M28.88,16.81a15.36,15.36,0,0,0-.56-1.46,25.19,25.19,0,0,0-3.49,1.18c.66.27,1.33.58,2,.91C27.53,17.19,28.22,17,28.88,16.81Z"/><path class="cls-2" d="M26.82,17.44c-.66-.33-1.33-.64-2-.91-.67.27-1.34.58-2,.91.66.23,1.33.5,2,.79C25.5,17.93,26.17,17.67,26.82,17.44Z"/><path class="cls-2" d="M34.49,25c.37-.41.7-.82,1-1.22-.18-.2-.37-.39-.56-.58-.29.4-.61.8-1,1.22C34.13,24.61,34.32,24.8,34.49,25Z"/><path class="cls-2" d="M38.4,17.17c-1.1-1.9-3.65-2.68-6.91-2.39l-.81.09c.19.48.37,1,.54,1.51a7.41,7.41,0,0,1,.8-.07c2.5-.15,4.33.44,5,1.64s.2,3.47-1.55,5.83c.37.4.71.81,1,1.21C38.77,22.09,39.58,19.22,38.4,17.17Z"/><path class="cls-2" d="M34.94,26.79l.55-.57a15.32,15.32,0,0,0-1-1.22q-.26.29-.54.57C34.31,26,34.64,26.38,34.94,26.79Z"/><path class="cls-2" d="M33.19,26.32c0,.75-.07,1.49-.14,2.21q1-.86,1.89-1.74c-.3-.41-.63-.81-1-1.22C33.71,25.82,33.46,26.07,33.19,26.32Z"/><path class="cls-2" d="M36.52,25c-.32-.4-.66-.81-1-1.21-.3.4-.63.81-1,1.22a15.32,15.32,0,0,1,1,1.22C35.86,25.81,36.2,25.4,36.52,25Z"/><path class="cls-2" d="M30.16,31.58l.66-.42.27-.19.06-.32c.05-.26.09-.52.13-.79-.3.22-.58.44-.9.64C30.31,30.87,30.24,31.23,30.16,31.58Z"/><path class="cls-2" d="M24.8,31.76c.69.31,1.37.58,2,.81.32-.16.64-.35,1-.52-.66-.21-1.32-.45-2-.73C25.45,31.48,25.13,31.62,24.8,31.76Z"/><path class="cls-2" d="M21.77,32.9l-1,.28-.78.18a15.8,15.8,0,0,0,.56,1.48c.26-.05.52-.12.78-.19a24.65,24.65,0,0,0,2.44-.79c-.44-.19-.88-.39-1.31-.61Z"/><path class="cls-2" d="M28.63,31.59c.29-.16.55-.33.83-.5l.92-.59c.13-.67.23-1.38.31-2.12-.28.21-.57.41-.86.61-.63.42-1.28.84-2,1.25s-1.38.75-2.07,1.08c.68.28,1.34.52,2,.73C28.07,31.9,28.35,31.76,28.63,31.59Z"/><path class="cls-2" d="M27.85,32.9l-1-.33c-.65-.23-1.33-.5-2-.81-.31-.14-.63-.28-.95-.44-.67-.32-1.35-.68-2.05-1.08a28.05,28.05,0,0,1-6.09-4.66c-.37.42-.7.82-1,1.22A29.5,29.5,0,0,0,21,31.59l.82.46,1,.5c.68.34,1.35.64,2,.92l1,.4a25.29,25.29,0,0,0,3.26,1c.19-.46.38-1,.55-1.47C29.08,33.25,28.47,33.09,27.85,32.9Z"/><path class="cls-2" d="M14.17,23.78c-.16-.22-.32-.43-.46-.65-.38.41-.73.81-1.05,1.22q.23.33.48.66C13.45,24.6,13.8,24.19,14.17,23.78Z"/><path class="cls-2" d="M18.05,33.66c-.14,0-.28,0-.42,0-2.49.15-4.31-.43-5-1.64s-.21-3.47,1.55-5.83c-.37-.4-.72-.81-1-1.21-2.26,2.9-3.07,5.77-1.88,7.82.92,1.61,2.88,2.46,5.59,2.46.42,0,.86,0,1.31-.06h0l.78-.11a14.82,14.82,0,0,1-.54-1.51Z"/><path class="cls-2" d="M15.71,24.43c-.36-.41-.69-.81-1-1.22-.19.19-.38.38-.55.57a15.32,15.32,0,0,0,1,1.22Q15.43,24.71,15.71,24.43Z"/><path class="cls-2" d="M15.17,25a15.32,15.32,0,0,1-1-1.22c-.37.41-.72.82-1,1.23.31.4.66.81,1,1.21C14.47,25.82,14.8,25.41,15.17,25Z"/><path class="cls-2" d="M24.83,9.33c-3.36,0-6.13,4.26-7.17,10.33.38-.28.78-.55,1.18-.82l.66-.42c1.09-4.66,3.26-7.52,5.33-7.52,1.53,0,3.11,1.57,4.27,4.26.54-.12,1.06-.22,1.58-.29C29.29,11.47,27.2,9.33,24.83,9.33Z"/><path class="cls-2" d="M21.87,18c-.29.15-.57.29-.85.46s-.55.33-.82.5-.63.39-.93.59c-.62.41-1.21.83-1.78,1.26l-.88.71a24.66,24.66,0,0,0-1.89,1.74c.3.41.63.81,1,1.22q.36-.37.75-.75c.26-.25.54-.49.82-.74.52-.45,1.09-.89,1.68-1.33l.87-.6c.62-.42,1.27-.84,2-1.25s1.39-.76,2.06-1.08C23.19,18.4,22.52,18.16,21.87,18Z"/><path class="cls-2" d="M20,33.36c-.53.11-1,.19-1.55.25A14.82,14.82,0,0,0,19,35.12c.51-.07,1-.16,1.57-.28A15.8,15.8,0,0,1,20,33.36Z"/><path class="cls-2" d="M29.66,16.63a15.73,15.73,0,0,1,1.56-.25c-.17-.53-.35-1-.54-1.51-.52.07-1,.17-1.58.29C29.3,15.62,29.49,16.11,29.66,16.63Z"/><path class="cls-2" d="M30.38,30.5c.62-.41,1.22-.83,1.78-1.27.1-.7.17-1.43.21-2.17-.52.44-1.08.89-1.68,1.32C30.61,29.12,30.51,29.83,30.38,30.5Z"/></svg>