<svg id="Layer_1" data-name="Layer 1" xmlns="http://www.w3.org/2000/svg" xmlns:xlink="http://www.w3.org/1999/xlink" viewBox="0 0 50 50"><defs><style>.cls-1{fill:url(#linear-gradient);}.cls-2{fill:#fff;}</style><linearGradient id="linear-gradient" x1="3.81" y1="-74.03" x2="82.61" y2="-74.03" gradientTransform="translate(-57.03 47.67) rotate(45)" gradientUnits="userSpaceOnUse"><stop offset="0" stop-color="#fa6a63"/><stop offset="1" stop-color="#f4b22d"/></linearGradient></defs><circle class="cls-1" cx="25" cy="25" r="25"/><rect class="cls-2" x="15.12" y="9.64" width="19.75" height="2.48"/><rect class="cls-2" x="15.12" y="37.87" width="19.75" height="2.48"/><path class="cls-2" d="M17.48,32.47v3.21h15V32.45a7.13,7.13,0,0,0-3-5.79l-2.46-1.78,2.45-1.75a7.15,7.15,0,0,0,3-5.81V14.11h-15v3.22a7.14,7.14,0,0,0,3,5.8l2.46,1.78-2.45,1.75A7.15,7.15,0,0,0,17.48,32.47Zm4.14-11a5.16,5.16,0,0,1-2.14-4.18V16.11h11v1.21a5.14,5.14,0,0,1-2.16,4.18L25,23.92Zm0,6.77L25,25.87l3.36,2.41a5.14,5.14,0,0,1,2.14,4.17v1.23h-11V32.47A5.17,5.17,0,0,1,21.64,28.28Z"/><path class="cls-2" d="M19.48,33.68h11V32.45a5.14,5.14,0,0,0-2.14-4.17L25,25.87l-3.38,2.41a5.17,5.17,0,0,0-2.16,4.19Z"/></svg>