<svg id="Layer_1" data-name="Layer 1" xmlns="http://www.w3.org/2000/svg" xmlns:xlink="http://www.w3.org/1999/xlink" viewBox="0 0 50 50"><defs><style>.cls-1{fill:url(#linear-gradient);}.cls-2{fill:#fff;}</style><linearGradient id="linear-gradient" x1="12.23" y1="-193.6" x2="91.03" y2="-193.6" gradientTransform="translate(-147.53 126.16) rotate(45)" gradientUnits="userSpaceOnUse"><stop offset="0" stop-color="#fa6a63"/><stop offset="1" stop-color="#f4b22d"/></linearGradient></defs><circle class="cls-1" cx="25" cy="24.89" r="25"/><g id="YgcsE0.tif"><path class="cls-2" d="M14.23,19.32l.5.16,1.56.68a1.82,1.82,0,0,0,1.3,0,2.45,2.45,0,0,0,1.74-1.65c.11-.37.25-.74.39-1.11a.93.93,0,0,1,.91-.66c.37,0,.73,0,1.09,0a1,1,0,0,1,1,.71c.18.48.36,1,.55,1.43a2.21,2.21,0,0,0,1.42,1.23A2.25,2.25,0,0,0,26.54,20l1.12-.53a.92.92,0,0,1,1.15.21c.25.24.49.48.73.73a.92.92,0,0,1,.21,1.2c-.22.48-.43.95-.63,1.43a2,2,0,0,0,0,1.57,2.3,2.3,0,0,0,1.43,1.5c.43.14.85.3,1.27.46a.91.91,0,0,1,.65.83,9,9,0,0,1,0,1.27.92.92,0,0,1-.66.85c-.32.12-.64.25-1,.34A2.56,2.56,0,0,0,29,32a1.55,1.55,0,0,0,.08,1c.21.49.43,1,.65,1.45a.94.94,0,0,1-.23,1.25l-.64.65a1,1,0,0,1-1.3.21,16.93,16.93,0,0,0-1.66-.67,2.43,2.43,0,0,0-2.5,1,17.09,17.09,0,0,0-.71,1.71,1,1,0,0,1-1,.74h-.94a1,1,0,0,1-1.06-.76c-.1-.3-.22-.59-.31-.89a2.59,2.59,0,0,0-2.19-1.88,1.75,1.75,0,0,0-1.09.15c-.46.19-.9.4-1.34.61a.93.93,0,0,1-1.18-.21l-.75-.75a.93.93,0,0,1-.2-1.13c.24-.55.48-1.1.7-1.65a1.66,1.66,0,0,0,0-1.12,2.49,2.49,0,0,0-1.75-1.86c-.33-.1-.65-.23-1-.34a.82.82,0,0,1-.66-.91V27.43a.79.79,0,0,1,.61-.86c.5-.19,1-.37,1.51-.59a2.47,2.47,0,0,0,1.35-2.34,2.28,2.28,0,0,0-.27-.95c-.15-.38-.35-.74-.52-1.12a.93.93,0,0,1,.2-1.13c.26-.26.5-.54.78-.77A4,4,0,0,1,14.23,19.32ZM16.42,28a4.78,4.78,0,1,0,4.78-4.77A4.77,4.77,0,0,0,16.42,28Z"/><path class="cls-2" d="M29.69,12.7l.93.15a1.32,1.32,0,0,0,1.45-1.28c0-.17,0-.33,0-.5a.51.51,0,0,1,.43-.52c.84-.24.85-.25,1.34.48a1.35,1.35,0,0,0,1.34.68,1.12,1.12,0,0,0,.44-.13,3.11,3.11,0,0,0,.43-.31c.6-.51.66-.5,1.33-.09a.6.6,0,0,1,.3.69,5,5,0,0,0-.11.76A1.28,1.28,0,0,0,38.75,14c.22,0,.43,0,.65.06a.5.5,0,0,1,.5.41v0c.22.86.28.84-.47,1.32a1.35,1.35,0,0,0-.7,1.32,1.46,1.46,0,0,0,.16.5,1.69,1.69,0,0,0,.28.38c.52.61.52.68.09,1.35a.57.57,0,0,1-.64.3,5.66,5.66,0,0,0-.81-.12,1.28,1.28,0,0,0-1.32,1.16c0,.21,0,.43-.06.64a.5.5,0,0,1-.4.49h0c-.83.24-.84.24-1.31-.47a1.38,1.38,0,0,0-1.28-.7,1,1,0,0,0-.42.1,2.89,2.89,0,0,0-.51.35c-.62.52-.69.52-1.38.07a.56.56,0,0,1-.27-.6c0-.18.06-.37.11-.55a1.34,1.34,0,0,0-1.27-1.63c-.17,0-.35,0-.52,0a.51.51,0,0,1-.5-.43c-.22-.84-.3-.83.48-1.34a1.33,1.33,0,0,0,.69-1,1.14,1.14,0,0,0-.22-.89l-.22-.27c-.52-.62-.53-.83,0-1.45A1.2,1.2,0,0,1,29.69,12.7Zm2.09,3.44a2.5,2.5,0,1,0,2.51-2.45A2.5,2.5,0,0,0,31.78,16.14Z"/></g></svg>