<svg id="Layer_1" data-name="Layer 1" xmlns="http://www.w3.org/2000/svg" xmlns:xlink="http://www.w3.org/1999/xlink" viewBox="0 0 50 50"><defs><style>.cls-1{fill:url(#linear-gradient);}.cls-2{fill:none;}.cls-3{fill:#fff;}</style><linearGradient id="linear-gradient" x1="53.24" y1="-94.61" x2="132.04" y2="-94.61" gradientTransform="translate(-106.52 27.17) rotate(45)" gradientUnits="userSpaceOnUse"><stop offset="0" stop-color="#fa6a63"/><stop offset="1" stop-color="#f4b22d"/></linearGradient></defs><circle class="cls-1" cx="25" cy="24.89" r="25"/><path class="cls-2" d="M30.52,17.94a5.52,5.52,0,1,0-11,0v3.11h11Z"/><path class="cls-3" d="M36.09,21.05H34.52V17.94a9.52,9.52,0,0,0-19,0v3.11H13.91a3.15,3.15,0,0,0-3.14,3.15V36.6a3.15,3.15,0,0,0,3.14,3.15H36.09a3.15,3.15,0,0,0,3.14-3.15V24.2A3.15,3.15,0,0,0,36.09,21.05ZM19.48,17.94a5.52,5.52,0,1,1,11,0v3.11h-11Zm3,18.79L17.8,32.05l2.12-2.12,2.56,2.56,7.6-7.6L32.2,27Z"/></svg>