<svg id="Layer_1" data-name="Layer 1" xmlns="http://www.w3.org/2000/svg" xmlns:xlink="http://www.w3.org/1999/xlink" viewBox="0 0 50 50"><defs><style>.cls-1{fill:url(#linear-gradient);}.cls-2{fill:#fff;}</style><linearGradient id="linear-gradient" x1="-16.76" y1="-123.45" x2="62.04" y2="-123.45" gradientTransform="translate(-77.53 97.17) rotate(45)" gradientUnits="userSpaceOnUse"><stop offset="0" stop-color="#fa6a63"/><stop offset="1" stop-color="#f4b22d"/></linearGradient></defs><circle class="cls-1" cx="24.89" cy="25" r="25"/><path class="cls-2" d="M21,38.4H28.6A1.41,1.41,0,0,0,30,37V35.5H19.56V37A1.4,1.4,0,0,0,21,38.4Z"/><path class="cls-2" d="M21.2,36.45h7.17a0,0,0,0,1,0,0V38.5a1.86,1.86,0,0,1-1.86,1.86H23.05A1.86,1.86,0,0,1,21.2,38.5V36.45A0,0,0,0,1,21.2,36.45Z"/><path class="cls-2" d="M24.37,9.66c-5.79.28-10.91,5.6-10.47,11.39.48,6.38,5.42,6.85,6.06,11.22a1.46,1.46,0,0,0,1.45,1.24h7a1.4,1.4,0,0,0,1.41-1.18c.65-4.71,6.12-4.91,6.12-12.6C35.92,14,30.18,9.37,24.37,9.66Zm3.3,10.88H26.05v9.51H23.74V20.54H22.12A1.15,1.15,0,0,1,21,19.39h0a1.15,1.15,0,0,1,1.15-1.16h5.55a1.16,1.16,0,0,1,1.15,1.16h0A1.16,1.16,0,0,1,27.67,20.54Z"/></svg>