<svg id="Layer_1" data-name="Layer 1" xmlns="http://www.w3.org/2000/svg" xmlns:xlink="http://www.w3.org/1999/xlink" viewBox="0 0 50 50"><defs><style>.cls-1{fill:url(#linear-gradient);}.cls-2{fill:#fff;}</style><linearGradient id="linear-gradient" x1="-86.69" y1="-152.52" x2="-7.89" y2="-152.52" gradientTransform="translate(-48.53 167.17) rotate(45)" gradientUnits="userSpaceOnUse"><stop offset="0" stop-color="#fa6a63"/><stop offset="1" stop-color="#f4b22d"/></linearGradient></defs><circle class="cls-1" cx="25" cy="25" r="25"/><rect class="cls-2" x="19.11" y="13.13" width="6.35" height="19.61" transform="translate(22.74 -9.04) rotate(45)"/><path class="cls-2" d="M30.6,12.15h1.65A2.35,2.35,0,0,1,34.6,14.5v.93a0,0,0,0,1,0,0H28.25a0,0,0,0,1,0,0V14.5a2.35,2.35,0,0,1,2.35-2.35Z" transform="translate(18.96 -18.18) rotate(45)"/><polygon class="cls-2" points="11.2 34.02 12.06 28.67 16.55 33.16 11.2 34.02"/><rect class="cls-2" x="11.2" y="36.57" width="27.59" height="2.07"/></svg>