<svg id="Layer_1" data-name="Layer 1" xmlns="http://www.w3.org/2000/svg" xmlns:xlink="http://www.w3.org/1999/xlink" viewBox="0 0 50 50"><defs><style>.cls-1{fill:url(#linear-gradient);}.cls-2{fill:#fff;}</style><linearGradient id="linear-gradient" x1="-57.69" y1="-222.53" x2="21.11" y2="-222.53" gradientTransform="translate(-118.53 196.16) rotate(45)" gradientUnits="userSpaceOnUse"><stop offset="0" stop-color="#fa6a63"/><stop offset="1" stop-color="#f4b22d"/></linearGradient></defs><circle class="cls-1" cx="25.01" cy="25" r="25"/><g id="GwdAMn.tif"><path class="cls-2" d="M9,25A16,16,0,1,1,25,41,16,16,0,0,1,9,25Zm16-12.3A12.31,12.31,0,1,0,37.32,25,12.33,12.33,0,0,0,25,12.69Z"/><path class="cls-2" d="M32.37,25A7.37,7.37,0,1,1,25,17.63,7.38,7.38,0,0,1,32.37,25ZM28.7,25A3.69,3.69,0,1,0,25,28.69,3.68,3.68,0,0,0,28.7,25Z"/></g></svg>